# xmcd
#
# Track frame offsets:
#	150
#	15486
#	29584
#	45924
#	60526
#	74948
#	90938
#	105052
#	120312
#
# Disc length: 1790 seconds
#
# Revision: 0
# Processed by: cddbd v1.5.2PL0 Copyright (c) Steve Scherf et al.
# Submitted via: EasyCDDAExtractor 16.0.9.1
#
DISCID=6306fc09
DTITLE=KARA - Full Bloom
DYEAR=2013
DGENRE=KPop
TTITLE0=둘 중에 하나(Runaway)
TTITLE1=숙녀가 못 돼
TTITLE2=1+1
TTITLE3=In The Game
TTITLE4=Follow Me
TTITLE5=Smoothie
TTITLE6=2Night
TTITLE7=둘 중에 하나(Runaway INST
TTITLE8=숙녀가 못 돼 INST
EXTD=
EXTT0=
EXTT1=
EXTT2=
EXTT3=
EXTT4=
EXTT5=
EXTT6=
EXTT7=
EXTT8=
PLAYORDER=
